<?xml version="1.0" encoding="UTF-8"?>
<svg xmlns="http://www.w3.org/2000/svg" xmlns:xlink="http://www.w3.org/1999/xlink" width="540" height="324" viewBox="0 0 540 324">
<rect x="-54" y="-32.4" width="648" height="388.8" fill="rgb(100%, 100%, 100%)" fill-opacity="1"/>
<path fill-rule="nonzero" fill="rgb(60%, 19.607843%, 80%)" fill-opacity="1" d="M 75.734375 248.664062 L 87.390625 248.664062 L 87.390625 59.039062 L 75.734375 59.039062 Z M 75.734375 248.664062 "/>
<path fill-rule="nonzero" fill="rgb(55.686275%, 18.039216%, 74.117647%)" fill-opacity="1" d="M 89.722656 248.664062 L 101.378906 248.664062 L 101.378906 59.039062 L 89.722656 59.039062 Z M 89.722656 248.664062 "/>
<path fill-rule="nonzero" fill="rgb(51.372549%, 16.862745%, 68.627451%)" fill-opacity="1" d="M 103.710938 248.664062 L 115.367188 248.664062 L 115.367188 59.039062 L 103.710938 59.039062 Z M 103.710938 248.664062 "/>
<path fill-rule="nonzero" fill="rgb(47.45098%, 15.294118%, 63.137255%)" fill-opacity="1" d="M 117.699219 248.664062 L 129.355469 248.664062 L 129.355469 59.039062 L 117.699219 59.039062 Z M 117.699219 248.664062 "/>
<path fill-rule="nonzero" fill="rgb(43.137255%, 14.117647%, 57.647059%)" fill-opacity="1" d="M 131.6875 248.664062 L 143.34375 248.664062 L 143.34375 59.039062 L 131.6875 59.039062 Z M 131.6875 248.664062 "/>
<path fill-rule="nonzero" fill="rgb(39.215686%, 12.54902%, 52.156863%)" fill-opacity="1" d="M 145.675781 248.664062 L 157.332031 248.664062 L 157.332031 59.039062 L 145.675781 59.039062 Z M 145.675781 248.664062 "/>
<path fill-rule="nonzero" fill="rgb(34.901961%, 11.372549%, 46.666667%)" fill-opacity="1" d="M 159.667969 248.664062 L 171.324219 248.664062 L 171.324219 59.039062 L 159.667969 59.039062 Z M 159.667969 248.664062 "/>
<path fill-rule="nonzero" fill="rgb(30.980392%, 9.803922%, 41.176471%)" fill-opacity="1" d="M 173.65625 248.664062 L 185.3125 248.664062 L 185.3125 59.039062 L 173.65625 59.039062 Z M 173.65625 248.664062 "/>
<path fill-rule="nonzero" fill="rgb(26.666667%, 8.627451%, 35.686275%)" fill-opacity="1" d="M 187.644531 248.664062 L 199.300781 248.664062 L 199.300781 59.039062 L 187.644531 59.039062 Z M 187.644531 248.664062 "/>
<path fill-rule="nonzero" fill="rgb(22.745098%, 7.058824%, 30.196078%)" fill-opacity="1" d="M 201.632812 248.664062 L 213.289062 248.664062 L 213.289062 59.039062 L 201.632812 59.039062 Z M 201.632812 248.664062 "/>
<path fill-rule="nonzero" fill="rgb(18.431373%, 5.882353%, 24.705882%)" fill-opacity="1" d="M 215.621094 248.664062 L 227.277344 248.664062 L 227.277344 59.039062 L 215.621094 59.039062 Z M 215.621094 248.664062 "/>
<path fill-rule="nonzero" fill="rgb(14.117647%, 4.705882%, 19.215686%)" fill-opacity="1" d="M 229.609375 248.664062 L 241.265625 248.664062 L 241.265625 59.039062 L 229.609375 59.039062 Z M 229.609375 248.664062 "/>
<path fill-rule="nonzero" fill="rgb(10.196078%, 3.137255%, 13.72549%)" fill-opacity="1" d="M 243.597656 248.664062 L 255.253906 248.664062 L 255.253906 59.039062 L 243.597656 59.039062 Z M 243.597656 248.664062 "/>
<path fill-rule="nonzero" fill="rgb(5.882353%, 1.960784%, 8.235294%)" fill-opacity="1" d="M 257.589844 248.664062 L 269.246094 248.664062 L 269.246094 59.039062 L 257.589844 59.039062 Z M 257.589844 248.664062 "/>
<path fill-rule="nonzero" fill="rgb(1.960784%, 0.392157%, 2.745098%)" fill-opacity="1" d="M 271.578125 248.664062 L 283.234375 248.664062 L 283.234375 59.039062 L 271.578125 59.039062 Z M 271.578125 248.664062 "/>
<path fill-rule="nonzero" fill="rgb(0.392157%, 2.745098%, 0.392157%)" fill-opacity="1" d="M 285.566406 248.664062 L 297.222656 248.664062 L 297.222656 59.039062 L 285.566406 59.039062 Z M 285.566406 248.664062 "/>
<path fill-rule="nonzero" fill="rgb(1.960784%, 8.235294%, 1.960784%)" fill-opacity="1" d="M 299.554688 248.664062 L 311.210938 248.664062 L 311.210938 59.039062 L 299.554688 59.039062 Z M 299.554688 248.664062 "/>
<path fill-rule="nonzero" fill="rgb(3.137255%, 13.72549%, 3.137255%)" fill-opacity="1" d="M 313.542969 248.664062 L 325.199219 248.664062 L 325.199219 59.039062 L 313.542969 59.039062 Z M 313.542969 248.664062 "/>
<path fill-rule="nonzero" fill="rgb(4.705882%, 19.215686%, 4.705882%)" fill-opacity="1" d="M 327.53125 248.664062 L 339.1875 248.664062 L 339.1875 59.039062 L 327.53125 59.039062 Z M 327.53125 248.664062 "/>
<path fill-rule="nonzero" fill="rgb(5.882353%, 24.705882%, 5.882353%)" fill-opacity="1" d="M 341.519531 248.664062 L 353.175781 248.664062 L 353.175781 59.039062 L 341.519531 59.039062 Z M 341.519531 248.664062 "/>
<path fill-rule="nonzero" fill="rgb(7.058824%, 30.196078%, 7.058824%)" fill-opacity="1" d="M 355.511719 248.664062 L 367.167969 248.664062 L 367.167969 59.039062 L 355.511719 59.039062 Z M 355.511719 248.664062 "/>
<path fill-rule="nonzero" fill="rgb(8.627451%, 35.686275%, 8.627451%)" fill-opacity="1" d="M 369.5 248.664062 L 381.15625 248.664062 L 381.15625 59.039062 L 369.5 59.039062 Z M 369.5 248.664062 "/>
<path fill-rule="nonzero" fill="rgb(9.803922%, 41.568627%, 9.803922%)" fill-opacity="1" d="M 383.488281 248.664062 L 395.144531 248.664062 L 395.144531 59.039062 L 383.488281 59.039062 Z M 383.488281 248.664062 "/>
<path fill-rule="nonzero" fill="rgb(11.372549%, 47.058824%, 11.372549%)" fill-opacity="1" d="M 397.476562 248.664062 L 409.132812 248.664062 L 409.132812 59.039062 L 397.476562 59.039062 Z M 397.476562 248.664062 "/>
<path fill-rule="nonzero" fill="rgb(12.54902%, 52.54902%, 12.54902%)" fill-opacity="1" d="M 411.464844 248.664062 L 423.121094 248.664062 L 423.121094 59.039062 L 411.464844 59.039062 Z M 411.464844 248.664062 "/>
<path fill-rule="nonzero" fill="rgb(14.117647%, 58.039216%, 14.117647%)" fill-opacity="1" d="M 425.453125 248.664062 L 437.109375 248.664062 L 437.109375 59.039062 L 425.453125 59.039062 Z M 425.453125 248.664062 "/>
<path fill-rule="nonzero" fill="rgb(15.294118%, 63.529412%, 15.294118%)" fill-opacity="1" d="M 439.441406 248.664062 L 451.097656 248.664062 L 451.097656 59.039062 L 439.441406 59.039062 Z M 439.441406 248.664062 "/>
<path fill-rule="nonzero" fill="rgb(16.862745%, 69.019608%, 16.862745%)" fill-opacity="1" d="M 453.433594 248.664062 L 465.089844 248.664062 L 465.089844 59.039062 L 453.433594 59.039062 Z M 453.433594 248.664062 "/>
<path fill-rule="nonzero" fill="rgb(18.039216%, 74.509804%, 18.039216%)" fill-opacity="1" d="M 467.421875 248.664062 L 479.078125 248.664062 L 479.078125 59.039062 L 467.421875 59.039062 Z M 467.421875 248.664062 "/>
<path fill-rule="nonzero" fill="rgb(19.607843%, 80.392157%, 19.607843%)" fill-opacity="1" d="M 481.410156 248.664062 L 493.066406 248.664062 L 493.066406 59.039062 L 481.410156 59.039062 Z M 481.410156 248.664062 "/>
</svg>
