<?xml version="1.0" encoding="UTF-8"?>
<svg xmlns="http://www.w3.org/2000/svg" xmlns:xlink="http://www.w3.org/1999/xlink" width="540" height="144" viewBox="0 0 540 144">
<rect x="-54" y="-14.4" width="648" height="172.8" fill="rgb(100%, 100%, 100%)" fill-opacity="1"/>
<path fill-rule="nonzero" fill="rgb(0%, 0%, 0%)" fill-opacity="1" d="M 20 142.574219 L 26.25 142.574219 L 26.25 0 L 20 0 Z M 20 142.574219 "/>
<path fill-rule="nonzero" fill="rgb(87.45098%, 32.54902%, 41.960784%)" fill-opacity="1" d="M 26.25 142.574219 L 32.5 142.574219 L 32.5 0 L 26.25 0 Z M 26.25 142.574219 "/>
<path fill-rule="nonzero" fill="rgb(38.039216%, 81.568627%, 30.980392%)" fill-opacity="1" d="M 32.5 142.574219 L 38.75 142.574219 L 38.75 0 L 32.5 0 Z M 32.5 142.574219 "/>
<path fill-rule="nonzero" fill="rgb(13.333333%, 59.215686%, 90.196078%)" fill-opacity="1" d="M 38.75 142.574219 L 45 142.574219 L 45 0 L 38.75 0 Z M 38.75 142.574219 "/>
<path fill-rule="nonzero" fill="rgb(15.686275%, 88.627451%, 89.803922%)" fill-opacity="1" d="M 45 142.574219 L 51.25 142.574219 L 51.25 0 L 45 0 Z M 45 142.574219 "/>
<path fill-rule="nonzero" fill="rgb(80.392157%, 4.313725%, 73.72549%)" fill-opacity="1" d="M 51.25 142.574219 L 57.5 142.574219 L 57.5 0 L 51.25 0 Z M 51.25 142.574219 "/>
<path fill-rule="nonzero" fill="rgb(96.078431%, 78.039216%, 6.27451%)" fill-opacity="1" d="M 57.5 142.574219 L 63.75 142.574219 L 63.75 0 L 57.5 0 Z M 57.5 142.574219 "/>
<path fill-rule="nonzero" fill="rgb(61.960784%, 61.960784%, 61.960784%)" fill-opacity="1" d="M 63.75 142.574219 L 70 142.574219 L 70 0 L 63.75 0 Z M 63.75 142.574219 "/>
<path fill-rule="nonzero" fill="rgb(0%, 0%, 0%)" fill-opacity="1" d="M 70 142.574219 L 76.25 142.574219 L 76.25 0 L 70 0 Z M 70 142.574219 "/>
<path fill-rule="nonzero" fill="rgb(87.45098%, 32.54902%, 41.960784%)" fill-opacity="1" d="M 76.25 142.574219 L 82.5 142.574219 L 82.5 0 L 76.25 0 Z M 76.25 142.574219 "/>
<path fill-rule="nonzero" fill="rgb(38.039216%, 81.568627%, 30.980392%)" fill-opacity="1" d="M 82.5 142.574219 L 88.75 142.574219 L 88.75 0 L 82.5 0 Z M 82.5 142.574219 "/>
<path fill-rule="nonzero" fill="rgb(13.333333%, 59.215686%, 90.196078%)" fill-opacity="1" d="M 88.75 142.574219 L 95 142.574219 L 95 0 L 88.75 0 Z M 88.75 142.574219 "/>
<path fill-rule="nonzero" fill="rgb(15.686275%, 88.627451%, 89.803922%)" fill-opacity="1" d="M 95 142.574219 L 101.25 142.574219 L 101.25 0 L 95 0 Z M 95 142.574219 "/>
<path fill-rule="nonzero" fill="rgb(80.392157%, 4.313725%, 73.72549%)" fill-opacity="1" d="M 101.25 142.574219 L 107.5 142.574219 L 107.5 0 L 101.25 0 Z M 101.25 142.574219 "/>
<path fill-rule="nonzero" fill="rgb(96.078431%, 78.039216%, 6.27451%)" fill-opacity="1" d="M 107.5 142.574219 L 113.75 142.574219 L 113.75 0 L 107.5 0 Z M 107.5 142.574219 "/>
<path fill-rule="nonzero" fill="rgb(61.960784%, 61.960784%, 61.960784%)" fill-opacity="1" d="M 113.75 142.574219 L 120 142.574219 L 120 0 L 113.75 0 Z M 113.75 142.574219 "/>
<path fill-rule="nonzero" fill="rgb(0%, 0%, 0%)" fill-opacity="1" d="M 120 142.574219 L 126.25 142.574219 L 126.25 0 L 120 0 Z M 120 142.574219 "/>
<path fill-rule="nonzero" fill="rgb(87.45098%, 32.54902%, 41.960784%)" fill-opacity="1" d="M 126.25 142.574219 L 132.5 142.574219 L 132.5 0 L 126.25 0 Z M 126.25 142.574219 "/>
<path fill-rule="nonzero" fill="rgb(38.039216%, 81.568627%, 30.980392%)" fill-opacity="1" d="M 132.5 142.574219 L 138.75 142.574219 L 138.75 0 L 132.5 0 Z M 132.5 142.574219 "/>
<path fill-rule="nonzero" fill="rgb(13.333333%, 59.215686%, 90.196078%)" fill-opacity="1" d="M 138.75 142.574219 L 145 142.574219 L 145 0 L 138.75 0 Z M 138.75 142.574219 "/>
<path fill-rule="nonzero" fill="rgb(15.686275%, 88.627451%, 89.803922%)" fill-opacity="1" d="M 145 142.574219 L 151.25 142.574219 L 151.25 0 L 145 0 Z M 145 142.574219 "/>
<path fill-rule="nonzero" fill="rgb(80.392157%, 4.313725%, 73.72549%)" fill-opacity="1" d="M 151.25 142.574219 L 157.5 142.574219 L 157.5 0 L 151.25 0 Z M 151.25 142.574219 "/>
<path fill-rule="nonzero" fill="rgb(96.078431%, 78.039216%, 6.27451%)" fill-opacity="1" d="M 157.5 142.574219 L 163.75 142.574219 L 163.75 0 L 157.5 0 Z M 157.5 142.574219 "/>
<path fill-rule="nonzero" fill="rgb(61.960784%, 61.960784%, 61.960784%)" fill-opacity="1" d="M 163.75 142.574219 L 170 142.574219 L 170 0 L 163.75 0 Z M 163.75 142.574219 "/>
<path fill-rule="nonzero" fill="rgb(0%, 0%, 0%)" fill-opacity="1" d="M 170 142.574219 L 176.25 142.574219 L 176.25 0 L 170 0 Z M 170 142.574219 "/>
<path fill-rule="nonzero" fill="rgb(87.45098%, 32.54902%, 41.960784%)" fill-opacity="1" d="M 176.25 142.574219 L 182.5 142.574219 L 182.5 0 L 176.25 0 Z M 176.25 142.574219 "/>
<path fill-rule="nonzero" fill="rgb(38.039216%, 81.568627%, 30.980392%)" fill-opacity="1" d="M 182.5 142.574219 L 188.75 142.574219 L 188.75 0 L 182.5 0 Z M 182.5 142.574219 "/>
<path fill-rule="nonzero" fill="rgb(13.333333%, 59.215686%, 90.196078%)" fill-opacity="1" d="M 188.75 142.574219 L 195 142.574219 L 195 0 L 188.75 0 Z M 188.75 142.574219 "/>
<path fill-rule="nonzero" fill="rgb(15.686275%, 88.627451%, 89.803922%)" fill-opacity="1" d="M 195 142.574219 L 201.25 142.574219 L 201.25 0 L 195 0 Z M 195 142.574219 "/>
<path fill-rule="nonzero" fill="rgb(80.392157%, 4.313725%, 73.72549%)" fill-opacity="1" d="M 201.25 142.574219 L 207.5 142.574219 L 207.5 0 L 201.25 0 Z M 201.25 142.574219 "/>
<path fill-rule="nonzero" fill="rgb(96.078431%, 78.039216%, 6.27451%)" fill-opacity="1" d="M 207.5 142.574219 L 213.75 142.574219 L 213.75 0 L 207.5 0 Z M 207.5 142.574219 "/>
<path fill-rule="nonzero" fill="rgb(61.960784%, 61.960784%, 61.960784%)" fill-opacity="1" d="M 213.75 142.574219 L 220 142.574219 L 220 0 L 213.75 0 Z M 213.75 142.574219 "/>
<path fill-rule="nonzero" fill="rgb(0%, 0%, 0%)" fill-opacity="1" d="M 220 142.574219 L 226.25 142.574219 L 226.25 0 L 220 0 Z M 220 142.574219 "/>
<path fill-rule="nonzero" fill="rgb(87.45098%, 32.54902%, 41.960784%)" fill-opacity="1" d="M 226.25 142.574219 L 232.5 142.574219 L 232.5 0 L 226.25 0 Z M 226.25 142.574219 "/>
<path fill-rule="nonzero" fill="rgb(38.039216%, 81.568627%, 30.980392%)" fill-opacity="1" d="M 232.5 142.574219 L 238.75 142.574219 L 238.75 0 L 232.5 0 Z M 232.5 142.574219 "/>
<path fill-rule="nonzero" fill="rgb(13.333333%, 59.215686%, 90.196078%)" fill-opacity="1" d="M 238.75 142.574219 L 245 142.574219 L 245 0 L 238.75 0 Z M 238.75 142.574219 "/>
<path fill-rule="nonzero" fill="rgb(15.686275%, 88.627451%, 89.803922%)" fill-opacity="1" d="M 245 142.574219 L 251.25 142.574219 L 251.25 0 L 245 0 Z M 245 142.574219 "/>
<path fill-rule="nonzero" fill="rgb(80.392157%, 4.313725%, 73.72549%)" fill-opacity="1" d="M 251.25 142.574219 L 257.5 142.574219 L 257.5 0 L 251.25 0 Z M 251.25 142.574219 "/>
<path fill-rule="nonzero" fill="rgb(96.078431%, 78.039216%, 6.27451%)" fill-opacity="1" d="M 257.5 142.574219 L 263.75 142.574219 L 263.75 0 L 257.5 0 Z M 257.5 142.574219 "/>
<path fill-rule="nonzero" fill="rgb(61.960784%, 61.960784%, 61.960784%)" fill-opacity="1" d="M 263.75 142.574219 L 270 142.574219 L 270 0 L 263.75 0 Z M 263.75 142.574219 "/>
<path fill-rule="nonzero" fill="rgb(0%, 0%, 0%)" fill-opacity="1" d="M 270 142.574219 L 276.25 142.574219 L 276.25 0 L 270 0 Z M 270 142.574219 "/>
<path fill-rule="nonzero" fill="rgb(87.45098%, 32.54902%, 41.960784%)" fill-opacity="1" d="M 276.25 142.574219 L 282.5 142.574219 L 282.5 0 L 276.25 0 Z M 276.25 142.574219 "/>
<path fill-rule="nonzero" fill="rgb(38.039216%, 81.568627%, 30.980392%)" fill-opacity="1" d="M 282.5 142.574219 L 288.75 142.574219 L 288.75 0 L 282.5 0 Z M 282.5 142.574219 "/>
<path fill-rule="nonzero" fill="rgb(13.333333%, 59.215686%, 90.196078%)" fill-opacity="1" d="M 288.75 142.574219 L 295 142.574219 L 295 0 L 288.75 0 Z M 288.75 142.574219 "/>
<path fill-rule="nonzero" fill="rgb(15.686275%, 88.627451%, 89.803922%)" fill-opacity="1" d="M 295 142.574219 L 301.25 142.574219 L 301.25 0 L 295 0 Z M 295 142.574219 "/>
<path fill-rule="nonzero" fill="rgb(80.392157%, 4.313725%, 73.72549%)" fill-opacity="1" d="M 301.25 142.574219 L 307.5 142.574219 L 307.5 0 L 301.25 0 Z M 301.25 142.574219 "/>
<path fill-rule="nonzero" fill="rgb(96.078431%, 78.039216%, 6.27451%)" fill-opacity="1" d="M 307.5 142.574219 L 313.75 142.574219 L 313.75 0 L 307.5 0 Z M 307.5 142.574219 "/>
<path fill-rule="nonzero" fill="rgb(61.960784%, 61.960784%, 61.960784%)" fill-opacity="1" d="M 313.75 142.574219 L 320 142.574219 L 320 0 L 313.75 0 Z M 313.75 142.574219 "/>
<path fill-rule="nonzero" fill="rgb(0%, 0%, 0%)" fill-opacity="1" d="M 320 142.574219 L 326.25 142.574219 L 326.25 0 L 320 0 Z M 320 142.574219 "/>
<path fill-rule="nonzero" fill="rgb(87.45098%, 32.54902%, 41.960784%)" fill-opacity="1" d="M 326.25 142.574219 L 332.5 142.574219 L 332.5 0 L 326.25 0 Z M 326.25 142.574219 "/>
<path fill-rule="nonzero" fill="rgb(38.039216%, 81.568627%, 30.980392%)" fill-opacity="1" d="M 332.5 142.574219 L 338.75 142.574219 L 338.75 0 L 332.5 0 Z M 332.5 142.574219 "/>
<path fill-rule="nonzero" fill="rgb(13.333333%, 59.215686%, 90.196078%)" fill-opacity="1" d="M 338.75 142.574219 L 345 142.574219 L 345 0 L 338.75 0 Z M 338.75 142.574219 "/>
<path fill-rule="nonzero" fill="rgb(15.686275%, 88.627451%, 89.803922%)" fill-opacity="1" d="M 345 142.574219 L 351.25 142.574219 L 351.25 0 L 345 0 Z M 345 142.574219 "/>
<path fill-rule="nonzero" fill="rgb(80.392157%, 4.313725%, 73.72549%)" fill-opacity="1" d="M 351.25 142.574219 L 357.5 142.574219 L 357.5 0 L 351.25 0 Z M 351.25 142.574219 "/>
<path fill-rule="nonzero" fill="rgb(96.078431%, 78.039216%, 6.27451%)" fill-opacity="1" d="M 357.5 142.574219 L 363.75 142.574219 L 363.75 0 L 357.5 0 Z M 357.5 142.574219 "/>
<path fill-rule="nonzero" fill="rgb(61.960784%, 61.960784%, 61.960784%)" fill-opacity="1" d="M 363.75 142.574219 L 370 142.574219 L 370 0 L 363.75 0 Z M 363.75 142.574219 "/>
<path fill-rule="nonzero" fill="rgb(0%, 0%, 0%)" fill-opacity="1" d="M 370 142.574219 L 376.25 142.574219 L 376.25 0 L 370 0 Z M 370 142.574219 "/>
<path fill-rule="nonzero" fill="rgb(87.45098%, 32.54902%, 41.960784%)" fill-opacity="1" d="M 376.25 142.574219 L 382.5 142.574219 L 382.5 0 L 376.25 0 Z M 376.25 142.574219 "/>
<path fill-rule="nonzero" fill="rgb(38.039216%, 81.568627%, 30.980392%)" fill-opacity="1" d="M 382.5 142.574219 L 388.75 142.574219 L 388.75 0 L 382.5 0 Z M 382.5 142.574219 "/>
<path fill-rule="nonzero" fill="rgb(13.333333%, 59.215686%, 90.196078%)" fill-opacity="1" d="M 388.75 142.574219 L 395 142.574219 L 395 0 L 388.75 0 Z M 388.75 142.574219 "/>
<path fill-rule="nonzero" fill="rgb(15.686275%, 88.627451%, 89.803922%)" fill-opacity="1" d="M 395 142.574219 L 401.25 142.574219 L 401.25 0 L 395 0 Z M 395 142.574219 "/>
<path fill-rule="nonzero" fill="rgb(80.392157%, 4.313725%, 73.72549%)" fill-opacity="1" d="M 401.25 142.574219 L 407.5 142.574219 L 407.5 0 L 401.25 0 Z M 401.25 142.574219 "/>
<path fill-rule="nonzero" fill="rgb(96.078431%, 78.039216%, 6.27451%)" fill-opacity="1" d="M 407.5 142.574219 L 413.75 142.574219 L 413.75 0 L 407.5 0 Z M 407.5 142.574219 "/>
<path fill-rule="nonzero" fill="rgb(61.960784%, 61.960784%, 61.960784%)" fill-opacity="1" d="M 413.75 142.574219 L 420 142.574219 L 420 0 L 413.75 0 Z M 413.75 142.574219 "/>
<path fill-rule="nonzero" fill="rgb(0%, 0%, 0%)" fill-opacity="1" d="M 420 142.574219 L 426.25 142.574219 L 426.25 0 L 420 0 Z M 420 142.574219 "/>
<path fill-rule="nonzero" fill="rgb(87.45098%, 32.54902%, 41.960784%)" fill-opacity="1" d="M 426.25 142.574219 L 432.5 142.574219 L 432.5 0 L 426.25 0 Z M 426.25 142.574219 "/>
<path fill-rule="nonzero" fill="rgb(38.039216%, 81.568627%, 30.980392%)" fill-opacity="1" d="M 432.5 142.574219 L 438.75 142.574219 L 438.75 0 L 432.5 0 Z M 432.5 142.574219 "/>
<path fill-rule="nonzero" fill="rgb(13.333333%, 59.215686%, 90.196078%)" fill-opacity="1" d="M 438.75 142.574219 L 445 142.574219 L 445 0 L 438.75 0 Z M 438.75 142.574219 "/>
<path fill-rule="nonzero" fill="rgb(15.686275%, 88.627451%, 89.803922%)" fill-opacity="1" d="M 445 142.574219 L 451.25 142.574219 L 451.25 0 L 445 0 Z M 445 142.574219 "/>
<path fill-rule="nonzero" fill="rgb(80.392157%, 4.313725%, 73.72549%)" fill-opacity="1" d="M 451.25 142.574219 L 457.5 142.574219 L 457.5 0 L 451.25 0 Z M 451.25 142.574219 "/>
<path fill-rule="nonzero" fill="rgb(96.078431%, 78.039216%, 6.27451%)" fill-opacity="1" d="M 457.5 142.574219 L 463.75 142.574219 L 463.75 0 L 457.5 0 Z M 457.5 142.574219 "/>
<path fill-rule="nonzero" fill="rgb(61.960784%, 61.960784%, 61.960784%)" fill-opacity="1" d="M 463.75 142.574219 L 470 142.574219 L 470 0 L 463.75 0 Z M 463.75 142.574219 "/>
<path fill-rule="nonzero" fill="rgb(0%, 0%, 0%)" fill-opacity="1" d="M 470 142.574219 L 476.25 142.574219 L 476.25 0 L 470 0 Z M 470 142.574219 "/>
<path fill-rule="nonzero" fill="rgb(87.45098%, 32.54902%, 41.960784%)" fill-opacity="1" d="M 476.25 142.574219 L 482.5 142.574219 L 482.5 0 L 476.25 0 Z M 476.25 142.574219 "/>
<path fill-rule="nonzero" fill="rgb(38.039216%, 81.568627%, 30.980392%)" fill-opacity="1" d="M 482.5 142.574219 L 488.75 142.574219 L 488.75 0 L 482.5 0 Z M 482.5 142.574219 "/>
<path fill-rule="nonzero" fill="rgb(13.333333%, 59.215686%, 90.196078%)" fill-opacity="1" d="M 488.75 142.574219 L 495 142.574219 L 495 0 L 488.75 0 Z M 488.75 142.574219 "/>
<path fill-rule="nonzero" fill="rgb(15.686275%, 88.627451%, 89.803922%)" fill-opacity="1" d="M 495 142.574219 L 501.25 142.574219 L 501.25 0 L 495 0 Z M 495 142.574219 "/>
<path fill-rule="nonzero" fill="rgb(80.392157%, 4.313725%, 73.72549%)" fill-opacity="1" d="M 501.25 142.574219 L 507.5 142.574219 L 507.5 0 L 501.25 0 Z M 501.25 142.574219 "/>
<path fill-rule="nonzero" fill="rgb(96.078431%, 78.039216%, 6.27451%)" fill-opacity="1" d="M 507.5 142.574219 L 513.75 142.574219 L 513.75 0 L 507.5 0 Z M 507.5 142.574219 "/>
<path fill-rule="nonzero" fill="rgb(61.960784%, 61.960784%, 61.960784%)" fill-opacity="1" d="M 513.75 142.574219 L 520 142.574219 L 520 0 L 513.75 0 Z M 513.75 142.574219 "/>
</svg>
